<svg width="607" height="768" viewBox="0 0 607 768" fill="none" xmlns="http://www.w3.org/2000/svg">
<mask id="mask0_1_47" style="mask-type:alpha" maskUnits="userSpaceOnUse" x="59" y="217" width="317" height="424">
<path d="M247.041 436.688C245.63 432.481 242.979 429.41 239.09 427.475C235.2 425.54 231.314 425.223 227.43 426.526C212.219 430.55 197.702 431.28 183.881 428.716C170.06 426.152 157.906 420.509 147.419 411.787C136.932 403.064 129.245 391.422 124.359 376.859C119.257 361.65 118.096 347.458 120.876 334.284C123.225 320.895 128.707 309.335 137.323 299.604C145.831 289.549 156.881 282.241 170.472 277.681C183.74 273.23 197.23 272.124 210.943 274.364C224.655 276.604 237.078 281.437 248.21 288.863C251.668 290.583 255.393 291.494 259.387 291.594C262.949 291.479 266.237 289.476 269.252 285.584C272.267 281.692 273.446 277.696 272.79 273.596C272.026 269.172 269.591 265.668 265.484 263.086C250.786 253.616 234.151 247.496 215.58 244.726C197.009 241.955 178.825 243.556 161.026 249.527C142.257 255.825 126.679 265.731 114.293 279.248C101.582 292.873 93.3025 308.972 89.4529 327.545C85.6033 346.118 87.2071 365.922 94.2641 386.956C98.607 399.901 105.376 411.491 114.571 421.727C123.765 431.964 134.468 440.254 146.677 446.599C158.887 452.943 171.901 456.858 185.72 458.342C199.539 459.826 213.515 458.557 227.647 454.536C228.618 454.21 228.24 454.157 226.513 454.376C224.787 454.596 222.843 454.168 220.682 453.093L237.782 504.06C239.193 508.267 241.844 511.338 245.733 513.274C249.191 514.994 253.023 515.148 257.23 513.737C261.437 512.326 264.562 509.837 266.606 506.271C268.218 502.49 268.156 498.55 266.421 494.452L247.041 436.688ZM287.199 604.671C292.7 602.826 296.526 599.742 298.676 595.42C300.394 590.883 300.33 585.864 298.485 580.363L294.902 569.684C292.948 563.859 289.971 559.817 285.973 557.558C281.651 555.408 276.74 555.256 271.239 557.101L268.326 558.078C262.501 560.033 258.837 563.062 257.334 567.167C255.507 571.38 255.571 576.399 257.525 582.224L261.108 592.903C262.954 598.404 265.93 602.446 270.037 605.029C273.711 607.396 278.461 607.603 284.286 605.649L287.199 604.671Z" fill="white"/>
</mask>
<g mask="url(#mask0_1_47)">
<rect width="462" height="505" transform="matrix(-0.948065 0.318078 0.318078 0.948065 319.463 152.948)" fill="url(#paint0_linear_1_47)"/>
</g>
<mask id="mask1_1_47" style="mask-type:alpha" maskUnits="userSpaceOnUse" x="266" y="218" width="292" height="417">
<path d="M382.726 436.153C383.798 431.847 386.195 428.575 389.918 426.336C393.641 424.096 397.49 423.472 401.465 424.461C416.949 427.259 431.477 426.83 445.05 423.173C458.623 419.516 470.289 412.922 480.048 403.392C489.806 393.861 496.54 381.643 500.25 366.738C504.124 351.17 504.151 336.931 500.329 324.02C496.921 310.861 490.535 299.774 481.17 290.761C471.889 281.416 460.292 275.012 446.38 271.55C432.8 268.17 419.264 268.143 405.774 271.469C392.283 274.794 380.286 280.602 369.78 288.892C366.471 290.882 362.83 292.086 358.857 292.504C355.297 292.674 351.86 290.939 348.544 287.3C345.229 283.661 343.735 279.771 344.062 275.632C344.471 271.161 346.619 267.475 350.507 264.573C364.404 253.962 380.498 246.535 398.789 242.294C417.08 238.053 435.334 238.199 453.552 242.733C472.763 247.514 489.081 256.148 502.506 268.634C516.261 281.203 525.798 296.591 531.115 314.798C536.433 333.006 536.413 352.874 531.054 374.404C527.757 387.653 521.933 399.746 513.583 410.683C505.234 421.619 495.226 430.736 483.561 438.034C471.896 445.331 459.235 450.27 445.578 452.851C431.921 455.432 417.889 455.281 403.481 452.399C402.488 452.151 402.86 452.068 404.599 452.149C406.337 452.23 408.241 451.649 410.309 450.405L397.325 502.573C396.254 506.879 393.856 510.152 390.134 512.391C386.824 514.381 383.017 514.841 378.711 513.769C374.405 512.697 371.091 510.466 368.769 507.074C366.861 503.433 366.609 499.501 368.012 495.278L382.726 436.153ZM356.084 606.802C350.453 605.401 346.394 602.632 343.906 598.495C341.832 594.11 341.495 589.102 342.897 583.471L345.617 572.54C347.101 566.578 349.746 562.312 353.551 559.742C357.688 557.254 362.571 556.71 368.202 558.112L371.183 558.854C377.145 560.338 381.039 563.065 382.865 567.037C385.021 571.091 385.358 576.099 383.874 582.062L381.154 592.992C379.752 598.623 377.108 602.889 373.22 605.791C369.746 608.444 365.027 609.028 359.065 607.544L356.084 606.802Z" fill="white"/>
</mask>
<g mask="url(#mask1_1_47)">
<rect x="287.922" y="159.087" width="462" height="505" transform="rotate(13.9757 287.922 159.087)" fill="url(#paint1_linear_1_47)"/>
</g>
<g filter="url(#filter0_d_1_47)">
<mask id="mask2_1_47" style="mask-type:alpha" maskUnits="userSpaceOnUse" x="217" y="135" width="207" height="378">
<path d="M294.312 340.363C294.312 335.925 295.848 332.171 298.92 329.099C301.992 326.027 305.576 324.491 309.672 324.491C325.373 323.467 339.368 319.541 351.656 312.715C363.944 305.888 373.672 296.672 380.84 285.067C388.008 273.461 391.592 259.979 391.592 244.619C391.592 228.576 388.179 214.752 381.352 203.147C374.867 191.2 365.992 181.984 354.728 175.499C343.464 168.672 330.664 165.259 316.328 165.259C302.333 165.259 289.192 168.501 276.904 174.987C264.616 181.472 254.376 190.005 246.184 200.587C243.453 203.317 240.211 205.365 236.456 206.731C233.043 207.755 229.288 206.901 225.192 204.171C221.096 201.44 218.707 198.027 218.024 193.931C217.341 189.493 218.536 185.397 221.608 181.643C232.531 167.989 246.355 156.896 263.08 148.363C279.805 139.829 297.555 135.563 316.328 135.563C336.125 135.563 354.045 140 370.088 148.875C386.472 157.749 399.443 170.379 409 186.763C418.557 203.147 423.336 222.432 423.336 244.619C423.336 258.272 420.605 271.413 415.144 284.043C409.683 296.672 402.173 307.936 392.616 317.835C383.059 327.733 371.965 335.584 359.336 341.387C346.707 347.189 333.053 350.432 318.376 351.115C317.352 351.115 317.693 350.944 319.4 350.603C321.107 350.261 322.813 349.237 324.52 347.531V401.291C324.52 405.728 322.984 409.483 319.912 412.555C317.181 415.285 313.597 416.651 309.16 416.651C304.723 416.651 300.968 415.285 297.896 412.555C295.165 409.483 293.971 405.728 294.312 401.291V340.363ZM309.672 512.395C303.869 512.395 299.261 510.688 295.848 507.275C292.776 503.52 291.24 498.741 291.24 492.939V481.675C291.24 475.531 292.776 470.752 295.848 467.339C299.261 463.925 303.869 462.219 309.672 462.219H312.744C318.888 462.219 323.325 463.925 326.056 467.339C329.128 470.752 330.664 475.531 330.664 481.675V492.939C330.664 498.741 329.128 503.52 326.056 507.275C323.325 510.688 318.888 512.395 312.744 512.395H309.672Z" fill="white"/>
</mask>
<g mask="url(#mask2_1_47)">
<rect x="135.4" y="94.3947" width="462" height="505" fill="url(#paint2_linear_1_47)"/>
</g>
</g>
<defs>
<filter id="filter0_d_1_47" x="127.4" y="-61.6053" width="377" height="768" filterUnits="userSpaceOnUse" color-interpolation-filters="sRGB">
<feFlood flood-opacity="0" result="BackgroundImageFix"/>
<feColorMatrix in="SourceAlpha" type="matrix" values="0 0 0 0 0 0 0 0 0 0 0 0 0 0 0 0 0 0 127 0" result="hardAlpha"/>
<feOffset dy="2"/>
<feGaussianBlur stdDeviation="32"/>
<feComposite in2="hardAlpha" operator="out"/>
<feColorMatrix type="matrix" values="0 0 0 0 1 0 0 0 0 1 0 0 0 0 1 0 0 0 0.4 0"/>
<feBlend mode="normal" in2="BackgroundImageFix" result="effect1_dropShadow_1_47"/>
<feBlend mode="normal" in="SourceGraphic" in2="effect1_dropShadow_1_47" result="shape"/>
</filter>
<linearGradient id="paint0_linear_1_47" x1="462" y1="0" x2="3.55516e-05" y2="505" gradientUnits="userSpaceOnUse">
<stop offset="0.145833" stop-color="#8583FF"/>
<stop offset="0.479167" stop-color="#FFC700"/>
<stop offset="0.859375" stop-color="#ED0000"/>
</linearGradient>
<linearGradient id="paint1_linear_1_47" x1="749.922" y1="159.087" x2="287.922" y2="664.087" gradientUnits="userSpaceOnUse">
<stop offset="0.145833" stop-color="#FFC700"/>
<stop offset="0.479167" stop-color="#8583FF"/>
<stop offset="0.859375" stop-color="#ED0000"/>
</linearGradient>
<linearGradient id="paint2_linear_1_47" x1="597.4" y1="94.3947" x2="135.4" y2="599.395" gradientUnits="userSpaceOnUse">
<stop offset="0.145833" stop-color="#8583FF"/>
<stop offset="0.479167" stop-color="#ED0000"/>
<stop offset="0.859375" stop-color="#FFC700"/>
</linearGradient>
</defs>
</svg>
